<svg width="512" height="512" viewBox="0 0 512 512" fill="none" xmlns="http://www.w3.org/2000/svg">
<rect width="512" height="512" rx="100" fill="url(#paint0_linear_1227_2)"/>
<path d="M351.55 364H291.7L260.2 289.3H229.6V364H171.25V147.1H269.65C288.45 147.1 303.55 150.2 314.95 156.4C326.45 162.6 334.8 171 340 181.6C345.2 192.1 347.8 203.9 347.8 217C347.8 228.1 346.3 237.6 343.3 245.5C340.4 253.3 336.35 260 331.15 265.6C326.05 271.1 320.15 275.9 313.45 280L351.55 364ZM263.05 245.8C270.55 245.8 276.75 242.85 281.65 236.95C286.65 231.05 289.15 224.6 289.15 217.6C289.15 210.1 286.45 203.7 281.05 198.4C275.65 193 269.65 190.3 263.05 190.3H229.6V245.8H263.05Z" fill="white"/>
<defs>
<linearGradient id="paint0_linear_1227_2" x1="0" y1="0" x2="607.006" y2="167.306" gradientUnits="userSpaceOnUse">
<stop stop-color="#38BDF8"/>
<stop offset="1" stop-color="#A78BFA"/>
</linearGradient>
</defs>
</svg>
